<?xml version="1.0" encoding="UTF-8" standalone="no"?>
<!-- Created with Inkscape (http://www.inkscape.org/) -->

<svg
   width="295.5983mm"
   height="131.92468mm"
   viewBox="0 0 295.5983 131.92468"
   version="1.1"
   id="svg5"
   inkscape:export-filename="logo.png"
   inkscape:export-xdpi="96"
   inkscape:export-ydpi="96"
   xmlns:inkscape="http://www.inkscape.org/namespaces/inkscape"
   xmlns:sodipodi="http://sodipodi.sourceforge.net/DTD/sodipodi-0.dtd"
   xmlns:xlink="http://www.w3.org/1999/xlink"
   xmlns="http://www.w3.org/2000/svg"
   xmlns:svg="http://www.w3.org/2000/svg">
  <sodipodi:namedview
     id="namedview7"
     pagecolor="#ffffff"
     bordercolor="#000000"
     borderopacity="0.25"
     inkscape:showpageshadow="2"
     inkscape:pageopacity="0.0"
     inkscape:pagecheckerboard="0"
     inkscape:deskcolor="#d1d1d1"
     inkscape:document-units="mm"
     showgrid="false" />
  <defs
     id="defs2">
    <linearGradient
       inkscape:collect="always"
       id="linearGradient4318">
      <stop
         style="stop-color:#ffffff;stop-opacity:1;"
         offset="0"
         id="stop4314" />
      <stop
         style="stop-color:#000000;stop-opacity:1;"
         offset="1"
         id="stop4316" />
    </linearGradient>
    <rect
       x="74.299156"
       y="347.39877"
       width="791.18561"
       height="307.23706"
       id="rect113" />
    <filter
       style="color-interpolation-filters:sRGB"
       inkscape:label="Drop Shadow"
       id="filter3804"
       x="-0.055233404"
       y="-0.075395517"
       width="1.0758015"
       height="1.1235261">
      <feFlood
         flood-opacity="0.360784"
         flood-color="rgb(0,0,0)"
         result="flood"
         id="feFlood3794" />
      <feComposite
         in="flood"
         in2="SourceGraphic"
         operator="in"
         result="composite1"
         id="feComposite3796" />
      <feGaussianBlur
         in="composite1"
         stdDeviation="8.9"
         result="blur"
         id="feGaussianBlur3798" />
      <feOffset
         dx="-36"
         dy="-12.1"
         result="offset"
         id="feOffset3800" />
      <feComposite
         in="SourceGraphic"
         in2="offset"
         operator="over"
         result="composite2"
         id="feComposite3802" />
    </filter>
    <linearGradient
       inkscape:collect="always"
       xlink:href="#linearGradient4318"
       id="linearGradient4320"
       x1="-252.14575"
       y1="77.288887"
       x2="855.03577"
       y2="559.22937"
       gradientUnits="userSpaceOnUse" />
  </defs>
  <g
     inkscape:label="Capa 1"
     inkscape:groupmode="layer"
     id="layer1"
     transform="translate(-48.579816,-40.027266)">
    <path
       id="text111"
       style="font-style:normal;font-variant:normal;font-weight:normal;font-stretch:normal;font-size:192px;font-family:False;-inkscape-font-specification:False;white-space:pre;shape-inside:url(#rect113);fill:url(#linearGradient4320);fill-opacity:1;stroke-width:1.00157;stroke-dasharray:none;filter:url(#filter3804)"
       d="m 44.17826,100.40456 -105.419923,38.67578 -24.791016,53.51953 -67.582031,24.79492 -47.19531,101.89063 38.67578,105.41992 101.890624,47.19532 L 45.176307,433.22488 69.967323,379.70534 137.54936,354.91042 184.74467,253.0198 146.06889,147.59987 Z M 0.87747836,150.73268 79.96537,152.90847 134.35014,210.3694 132.17436,289.45925 91.227089,328.21511 53.695838,225.91433 -35.101038,184.78347 Z m -58.14648536,79.25586 44.861329,1.23438 54.384766,57.46094 -1.492187,54.21875 -44.8593758,-1.23438 -54.3847662,-57.46093 z m -50.048833,14.03321 37.556646,102.36914 88.730469,41.09961 -36.628906,34.66797 -79.087892,-2.17578 -54.384767,-57.46094 2.17383,-79.08789 z m 521.64845,134.09766 c -6.65599,0 -12.99182,0.76673 -19.00781,2.30273 -6.016,1.408 -11.32756,3.77552 -15.93555,7.10352 -4.48,3.19999 -8.06396,7.48924 -10.75195,12.86523 -2.688,5.248 -4.03125,11.77599 -4.03125,19.58399 0,6.52799 0.83209,12.09513 2.49609,16.70312 1.792,4.48 4.35169,8.38489 7.67969,11.71289 3.32799,3.2 7.48652,6.07868 12.47851,8.63867 4.992,2.432 10.81667,4.80147 17.47266,7.10547 3.712,1.28 7.16914,2.55985 10.36914,3.83985 3.2,1.27999 6.01527,2.55984 8.44727,3.83984 2.43199,1.28 4.35176,2.62325 5.75976,4.03125 1.408,1.28 2.11133,2.68861 2.11133,4.22461 0,1.664 -0.57456,3.13602 -1.72656,4.41601 -1.152,1.28 -2.68938,2.36768 -4.60938,3.26368 -1.92,0.896 -4.09534,1.59933 -6.52734,2.11133 -2.304,0.38399 -4.67152,0.57617 -7.10352,0.57617 -3.32799,0 -6.4642,-0.19218 -9.4082,-0.57617 -2.816,-0.384 -5.63322,-1.02393 -8.44922,-1.91993 -2.688,-1.024 -5.50327,-2.23848 -8.44727,-3.64648 -2.94399,-1.536 -6.20701,-3.32896 -9.79101,-5.37695 l -14.01758,24.1914 c 7.29599,5.12 15.10384,8.96149 23.42383,11.52149 8.44799,2.43199 17.72981,3.64648 27.8418,3.64648 7.16799,0 13.8228,-0.83209 19.96679,-2.49609 6.144,-1.536 11.45555,-3.96693 15.93555,-7.29492 4.48,-3.456 8.00055,-7.87206 10.56055,-13.24805 2.68799,-5.376 4.0332,-11.84059 4.0332,-19.39258 0,-7.03999 -1.02427,-12.7993 -3.07227,-17.2793 -1.91999,-4.60799 -4.67186,-8.38413 -8.25585,-11.32812 -3.456,-2.944 -7.55307,-5.37688 -12.28907,-7.29688 -4.60799,-1.92 -9.60057,-3.77441 -14.97656,-5.5664 -3.584,-1.28 -7.1026,-2.49644 -10.55859,-3.64844 -3.456,-1.152 -6.4654,-2.36844 -9.02539,-3.64844 -2.56,-1.408 -4.67194,-2.88002 -6.33594,-4.41601 -1.536,-1.664 -2.30274,-3.58377 -2.30274,-5.75977 0,-2.56 1.34326,-4.99288 4.03125,-7.29688 2.688,-2.43199 7.29623,-3.64648 13.82422,-3.64648 2.688,0 5.24769,0.19022 7.67969,0.57422 2.56,0.384 5.18505,1.08928 7.87305,2.11328 2.68799,0.896 5.50327,2.04708 8.44726,3.45508 3.072,1.408 6.46379,3.20095 10.17578,5.37695 l 14.01563,-24.38476 c -7.55199,-5.12 -15.42324,-8.89613 -23.61524,-11.32813 -8.06399,-2.432 -16.19277,-3.64648 -24.38476,-3.64648 z m 371.71289,0 c -8.31999,0 -16.38536,1.21448 -24.19336,3.64648 -7.67999,2.304 -14.52697,6.2089 -20.54296,11.71289 -6.016,5.376 -10.8164,12.54392 -14.4004,21.50391 -3.58399,8.95999 -5.375,20.03086 -5.375,33.21484 0,13.31199 1.85441,24.44821 5.56641,33.40821 3.84,8.95999 8.89598,16.19327 15.16797,21.69726 6.27199,5.376 13.44187,9.21554 21.50586,11.51953 8.19199,2.304 16.5744,3.45508 25.15039,3.45508 17.02398,0 33.28155,-4.99062 48.76953,-14.97461 l -14.01758,-24.38476 c -3.83999,2.04799 -7.16642,3.84095 -9.98242,5.37695 -2.816,1.408 -5.44105,2.62248 -7.87305,3.64648 -2.30399,0.896 -4.5447,1.53593 -6.7207,1.91993 -2.048,0.38399 -4.22334,0.57617 -6.52734,0.57617 -5.248,0 -10.0484,-1.02427 -14.40039,-3.07227 -4.352,-2.176 -8.12813,-5.12003 -11.32813,-8.83203 -3.072,-3.84 -5.50292,-8.31946 -7.29492,-13.43945 -1.664,-5.12 -2.49609,-10.75249 -2.49609,-16.89649 0,-7.29599 0.76869,-13.56646 2.30468,-18.81445 1.664,-5.376 3.90276,-9.79205 6.71875,-13.24805 2.816,-3.45599 6.14438,-6.01569 9.98438,-7.67969 3.83999,-1.66399 8.06388,-2.49609 12.67187,-2.49609 2.304,0 4.54471,0.19022 6.72071,0.57422 2.17599,0.384 4.41475,1.02587 6.71875,1.92187 2.43199,0.896 4.92828,2.11049 7.48828,3.64649 2.688,1.408 5.69544,3.20095 9.02344,5.37695 l 14.01757,-24.38476 c -7.03999,-5.376 -14.65761,-9.21554 -22.84961,-11.51954 -8.19199,-2.30399 -16.12664,-3.45507 -23.80664,-3.45507 z m -702.144536,2.8789 -21.3125,26.88086 h 21.3125 V 515.3987 h 34.560546 v -66.8164 l 30.33594,59.51953 h 34.55859 l 30.33594,-59.51953 v 80.25586 l 34.56055,15.35937 V 380.99831 h -34.56055 l -47.61523,93.3125 -47.61524,-93.3125 z m 181.439456,0 V 515.3987 h 34.56055 V 380.99831 Z m 51.64844,0 V 515.3987 H 351.5474 V 380.99831 Z m 196.0332,0 -48,134.40039 h 35.13477 l 30.5293,-85.24804 13.63086,38.40039 -21.50391,26.8789 h 31.10351 l 7.10547,19.96875 h 35.13477 27.45703 l 30.52735,-85.24804 13.63281,38.40039 -21.50391,26.8789 h 31.10352 l 7.10351,19.96875 h 35.13672 l -48,-134.40039 H 636.47514 L 592.31499,504.64675 548.15483,380.99831 Z"
       transform="matrix(0.26458333,0,0,0.26458333,116.8873,22.314848)" />
  </g>
</svg>
